<svg xmlns="http://www.w3.org/2000/svg" xmlns:xlink="http://www.w3.org/1999/xlink" fill="none" version="1.1" width="36" height="36" viewBox="0 0 36 36"><defs><clipPath id="master_svg0_151_9020"><rect x="0" y="0" width="36" height="36" rx="0"/></clipPath></defs><g clip-path="url(#master_svg0_151_9020)"><g><g><path d="M12.24192190477295,11.77585012C11.99086760477295,11.33859429,11.523832304772949,11.047584649,10.996770404772949,11L5.306512834772949,11C4.47060742577295,11,4.294282314772949,12.1453992,4.522851116772949,12.5659909L10.88575360477295,24.226194C11.137044404772949,24.662917999999998,11.60414790477295,24.953198,12.13090510477295,25L19.49297620477295,25L12.24192190477295,11.77585012Z" fill="#A5D867" fill-opacity="1" style="mix-blend-mode:passthrough"/></g><g><path d="M26.746771313037108,11.77585012C26.49530121303711,11.3380273,26.02730461303711,11.046930403,25.49944301303711,11L19.80918353303711,11C18.97327822103711,11,18.79913044303711,12.1433585,19.02769921003711,12.5659909L25.39495321303711,24.226194C25.64684061303711,24.662412,26.11361931303711,24.952491000000002,26.64010711303711,25L33.99999761303711,25L26.746771313037108,11.77585012Z" fill="#0097BA" fill-opacity="1" style="mix-blend-mode:passthrough"/></g><g><path d="M16.563374519348145,17.997958219390867L20.403317719348145,24.99898171939087L22.619340419348145,20.852269619390867L18.581304119348143,13.51436471939087L16.563374519348145,17.997958219390867Z" fill="#D1D3D4" fill-opacity="1" style="mix-blend-mode:passthrough"/></g><g><path d="M2,17.997958219390867L5.8399432000000004,24.99898171939087L8.0559659,20.852269619390867L4.0179296,13.51436471939087L2,17.997958219390867Z" fill="#D1D3D4" fill-opacity="1" style="mix-blend-mode:passthrough"/></g></g></g></svg>