<svg xmlns="http://www.w3.org/2000/svg" viewBox="0 0 454.35 68.66"><defs><style>.cls-1{fill:#a5d867;}.cls-2{fill:#0097ba;}.cls-3{fill:#d1d3d4;}</style></defs><g id="图层_2" data-name="图层 2"><g id="Layer_1" data-name="Layer 1"><path class="cls-1" d="M47.06,3.89A7.32,7.32,0,0,0,41.33.09H15.19c-3.84,0-4.64,5.61-3.6,7.67L40.82,64.87a7.29,7.29,0,0,0,5.72,3.79H80.36Z"/><path class="cls-2" d="M113.68,3.89A7.29,7.29,0,0,0,108,.09H81.81C78,.09,77.17,5.7,78.22,7.76l29.23,57.11a7.28,7.28,0,0,0,5.72,3.79H147Z"/><polygon class="cls-3" points="66.9 34.37 84.54 68.66 94.72 48.35 76.17 12.41 66.9 34.37"/><polygon class="cls-3" points="0 34.37 17.64 68.66 27.82 48.35 9.27 12.41 0 34.37"/><polygon points="176.8 26.2 183.99 26.2 183.99 23.4 196.09 23.4 196.09 19.64 183.99 19.64 183.99 14.76 194.64 14.76 194.64 11 183.99 11 183.99 6.07 195.8 6.07 195.8 2.52 183.99 2.53 183.99 0 176.8 0 176.8 2.54 165.05 2.54 165.05 6.07 176.8 6.07 176.8 11 166.22 11 166.22 14.76 176.8 14.76 176.8 19.64 163.91 19.64 163.91 23.4 176.8 23.4 176.8 26.2"/><polygon points="219.45 14.76 229.72 14.76 229.72 11 219.45 11 219.45 6.07 231.23 6.07 231.23 2.52 219.45 2.53 219.45 0 212.26 0 212.26 2.54 200.48 2.54 200.48 6.07 212.26 6.07 212.26 11 201.29 11 201.29 14.76 212.26 14.76 212.26 19.64 200.18 19.64 200.18 23.4 212.26 23.4 212.26 26.2 219.45 26.2 219.45 23.4 232.35 23.4 232.35 19.64 219.45 19.64 219.45 14.76"/><polygon points="227.88 49.74 227.88 29.96 167.15 29.96 167.15 33.28 219.8 33.28 219.8 38.16 168.63 38.16 168.63 41.48 219.8 41.48 219.8 46.42 166.45 46.42 166.45 49.74 227.88 49.74"/><rect x="195.71" y="53.39" width="12" height="4.21"/><polygon points="189.41 53.39 181.15 53.39 181.15 68.6 181.19 68.6 181.19 68.62 215.48 68.62 215.48 64.31 189.41 64.31 189.41 53.39"/><path d="M271,9.38h3.4V4.12H261L260.3,0h-6.84l.69,4.12H240.44V9.37h3.62L247.79,22h-8.65v5.17h14.32v6.72H240.05V39h13.41l-.13,29.59h7.6L261.06,39h13.66V33.86H261.06V27.14h14.09V22h-8.1ZM261.06,22h-6.85l-3.87-12.6H264.5Z"/><polygon points="279.42 1.51 279.42 68.62 286.45 68.62 286.45 26.38 295.74 26.38 295.74 68.6 303.36 68.6 303.36 26.38 306.06 26.38 306.06 20.47 286.45 20.47 286.45 7.84 306.06 7.84 306.06 1.51 279.42 1.51"/><polygon points="351.49 48.24 377.29 48.24 377.29 42.94 351.49 42.94 351.49 28.81 378.87 28.81 378.87 23.52 316.46 23.52 316.46 28.81 344.52 28.81 344.52 42.94 318.44 42.94 318.44 48.24 344.52 48.24 344.52 63.33 313.75 63.33 313.75 68.62 382.12 68.62 382.12 63.33 351.49 63.33 351.49 48.24"/><polygon points="334.39 5.42 361.06 5.42 372.12 19.28 381.14 19.27 365.71 0 329.84 0 314.31 19.27 323.06 19.28 334.39 5.42"/><polygon points="238.65 68.62 244.7 68.62 249.66 42.62 243.61 42.62 238.65 68.62"/><polygon points="265.21 42.62 268.54 68.6 274.02 68.62 270.56 42.62 265.21 42.62"/><polygon points="164.68 68.62 172.74 68.62 176.64 53.39 168.63 53.39 164.68 68.62"/><polygon points="219.8 53.39 224.05 68.62 231.86 68.62 227.88 53.39 219.8 53.39"/><path d="M427.18,2.3V33.87h27.17V2.3Zm20.11,25.87H434.07V7.83h13.22Z"/><polygon points="399.07 33.85 405.97 22.52 409.2 22.52 413.66 33.85 421.19 33.85 416.08 22.52 422.35 22.52 422.35 16.97 407.66 16.97 410.06 8.43 421.94 8.43 421.94 2.3 397.61 2.3 398.51 0.07 391.54 0.07 387.6 12.49 394.05 12.67 395.55 8.43 402.93 8.43 400.51 16.97 388.38 16.97 388.38 22.52 398.05 22.52 391.22 33.85 399.07 33.85"/><path d="M392.2,37.88V68.61h59.49V37.88ZM443.49,63.1H400.37V55.93H436V50.61H400.37V43.33h43.12Z"/></g></g></svg>